<svg version="1.1" viewBox="0 0 96 96" xmlns="http://www.w3.org/2000/svg" xmlns:xlink="http://www.w3.org/1999/xlink" id="Icons_CryingFaceSolid" overflow="hidden"><g><g><path d=" M 48 10 C 27 10 10 27 10 48 C 10 69 27 86 48 86 C 69 86 86 69 86 48 C 86 27 69 10 48 10 Z M 26 42 C 26 38.7 28.7 36 32 36 C 35.3 36 38 38.7 38 42 C 38 45.3 35.3 48 32 48 C 28.7 48 26 45.3 26 42 Z M 35 56 C 35 57.7 33.7 59 32 59 C 30.3 59 29 57.7 29 56 C 29 54.3 32 50 32 50 C 32 50 35 54.3 35 56 Z M 66.2 71 C 65.5 71 64.9 70.7 64.6 70.2 C 60.8 65.2 54.8 62.1 48 62.1 C 41.2 62.1 35.3 65.2 31.4 70.2 C 31 70.7 30.4 71 29.8 71 C 28.7 71 27.8 70.1 27.8 69 C 27.8 68.6 27.9 68.2 28.2 67.8 C 32.8 61.8 39.9 58 48 58 C 56.1 58 63.2 61.8 67.8 67.8 C 68 68.1 68.2 68.5 68.2 69 C 68.2 70.1 67.3 71 66.2 71 Z M 64 48 C 60.7 48 58 45.3 58 42 C 58 38.7 60.7 36 64 36 C 67.3 36 70 38.7 70 42 C 70 45.3 67.3 48 64 48 Z" stroke="none" stroke-width="1" stroke-linecap="butt" fill="#FF3A2B" fill-opacity="1"/></g></g></svg>