<svg version="1.1" viewBox="0 0 96 96" xmlns="http://www.w3.org/2000/svg" xmlns:xlink="http://www.w3.org/1999/xlink" id="Icons_GroupSuccess" overflow="hidden"><circle cx="78" cy="25" r="5" stroke="none" stroke-width="1" stroke-linecap="butt" fill="#FF3A2B" fill-opacity="1"/><circle cx="58" cy="25" r="5" stroke="none" stroke-width="1" stroke-linecap="butt" fill="#FF3A2B" fill-opacity="1"/><circle cx="38" cy="25" r="5" stroke="none" stroke-width="1" stroke-linecap="butt" fill="#FF3A2B" fill-opacity="1"/><circle cx="18" cy="25" r="5" stroke="none" stroke-width="1" stroke-linecap="butt" fill="#FF3A2B" fill-opacity="1"/><path d=" M 88.58 19.51 C 87.541 19.135 86.3948 19.6733 86.0198 20.7123 C 86.0129 20.7314 86.0063 20.7507 86 20.77 L 82.27 31.77 C 80.892 31.3059 79.4533 31.0465 78 31 C 76.5293 31.0443 75.0733 31.3071 73.68 31.78 L 70 20.77 C 69.5836 19.6875 68.3686 19.1475 67.2861 19.5639 C 66.7315 19.7772 66.2933 20.2155 66.08 20.77 L 62.35 31.77 C 60.9466 31.2973 59.4803 31.0378 58 31 C 56.5302 31.0454 55.0749 31.3048 53.68 31.77 L 50 20.77 C 49.5836 19.6875 48.3686 19.1475 47.2861 19.5639 C 46.7315 19.7772 46.2933 20.2155 46.08 20.77 L 42.36 31.77 C 40.9519 31.3023 39.4831 31.0429 38 31 C 36.5293 31.0443 35.0733 31.3071 33.68 31.78 L 30 20.77 C 29.5836 19.6875 28.3686 19.1475 27.2861 19.5639 C 26.7315 19.7772 26.2933 20.2155 26.08 20.77 L 22.35 31.77 C 20.9456 31.3016 19.4799 31.0422 18 31 C 16.5293 31.0443 15.0733 31.3071 13.68 31.78 L 10 20.77 C 9.64654 19.7234 8.51158 19.1615 7.465 19.515 C 6.41842 19.8685 5.85654 21.0034 6.21 22.05 L 11.15 36.64 C 11.4191 37.4374 12.1586 37.9811 13 38 L 13 44 L 10 59 L 13 59 L 13 76 L 17 76 L 17 59 L 19 59 L 19 76 L 23 76 L 23 59 L 26 59 L 23 44 L 23 38 C 23.8562 37.9979 24.616 37.4511 24.89 36.64 L 28 27.46 L 31.11 36.64 C 31.384 37.4511 32.1438 37.9979 33 38 L 33 76 L 37 76 L 37 53 L 39 53 L 39 76 L 43 76 L 43 38 C 43.8562 37.9979 44.616 37.4511 44.89 36.64 L 48 27.46 L 51.11 36.64 C 51.384 37.4511 52.1438 37.9979 53 38 L 53 44 L 50 59 L 53 59 L 53 76 L 57 76 L 57 59 L 59 59 L 59 76 L 63 76 L 63 59 L 66 59 L 63 44 L 63 38 C 63.8562 37.9979 64.616 37.4511 64.89 36.64 L 68 27.46 L 71.11 36.64 C 71.384 37.4511 72.1438 37.9979 73 38 L 73 76 L 77 76 L 77 53 L 79 53 L 79 76 L 83 76 L 83 38 C 83.8562 37.9979 84.616 37.4511 84.89 36.64 L 89.83 22.05 C 90.1868 21.0047 89.6287 19.868 88.5833 19.5111 C 88.5822 19.5108 88.5811 19.5104 88.58 19.51 Z" stroke="none" stroke-width="1" stroke-linecap="butt" fill="#FF3A2B" fill-opacity="1"/></svg>